<?xml version="1.0" encoding="UTF-8" standalone="no"?>
<svg xmlns="http://www.w3.org/2000/svg" version="1.1" viewBox="403.5 362.0 626 626">
<path fill="#f08c79" d="
  M 724.50 772.95
  A 0.46 0.45 -3.1 0 0 724.06 773.43
  Q 725.56 802.93 727.64 828.81
  C 729.73 854.92 731.60 877.99 736.72 901.35
  C 738.65 910.16 739.58 919.06 737.62 926.37
  C 733.17 943.03 715.91 948.46 700.33 948.15
  Q 691.86 947.98 686.59 945.17
  Q 675.45 939.23 672.57 926.95
  Q 669.29 912.96 666.65 892.34
  C 658.39 828.07 654.80 764.31 657.56 699.50
  Q 659.99 642.53 666.94 588.23
  Q 671.15 555.37 676.50 532.71
  Q 679.71 519.07 691.47 512.50
  C 703.61 505.72 720.24 502.91 732.62 510.73
  C 741.94 516.62 742.76 525.42 741.54 535.51
  Q 740.51 544.12 738.50 554.99
  Q 736.88 563.79 733.06 590.13
  Q 730.58 607.26 728.84 625.42
  Q 724.56 670.30 723.33 716.46
  A 0.89 0.89 0.0 0 0 724.23 717.37
  Q 782.86 716.39 829.53 681.52
  C 849.42 666.65 864.25 645.62 874.01 622.75
  C 882.28 603.36 883.96 580.90 881.09 559.96
  C 878.69 542.43 872.92 527.75 862.83 512.92
  Q 848.61 492.01 825.87 480.07
  C 812.88 473.24 801.26 469.45 785.60 465.30
  C 766.68 460.28 746.92 458.93 728.50 460.30
  Q 693.76 462.88 661.63 473.90
  Q 650.38 477.76 633.31 485.83
  Q 603.86 499.74 580.59 522.45
  C 562.11 540.48 549.67 560.40 544.47 584.94
  Q 542.09 596.17 543.52 605.97
  C 544.81 614.88 549.84 626.01 557.37 631.31
  C 566.40 637.66 580.71 637.14 590.38 632.79
  C 594.46 630.95 596.64 628.63 600.56 625.85
  C 605.54 622.32 613.91 620.80 619.89 623.44
  C 633.35 629.38 637.01 641.40 634.63 655.21
  Q 633.12 664.03 627.46 670.70
  C 618.80 680.92 608.81 688.55 595.83 692.94
  Q 574.73 700.08 553.48 695.98
  C 528.02 691.06 505.61 674.91 493.74 652.06
  Q 485.80 636.80 483.60 618.42
  C 479.14 581.18 489.81 543.83 512.47 514.15
  Q 524.94 497.82 539.77 484.51
  C 561.42 465.08 584.78 448.59 611.12 436.11
  Q 625.82 429.15 641.85 423.47
  C 663.94 415.65 687.22 411.15 709.97 408.10
  Q 757.51 401.73 803.35 410.20
  Q 828.66 414.88 848.06 423.04
  C 874.74 434.25 897.33 449.20 916.43 470.31
  C 932.10 487.62 943.26 509.95 947.90 532.78
  Q 954.34 564.44 951.17 591.48
  Q 948.87 611.15 944.14 627.84
  Q 943.05 631.68 937.69 644.81
  C 931.94 658.90 924.96 670.82 916.35 682.12
  Q 912.27 687.49 904.42 696.68
  Q 895.66 706.92 879.32 720.47
  C 872.29 726.29 861.26 733.27 854.99 737.23
  C 838.17 747.85 819.65 755.34 799.28 761.80
  C 775.09 769.47 750.09 772.33 724.50 772.95
  Z"
/>
</svg>
